<svg width="23" height="23" viewBox="0 0 23 23" fill="none" xmlns="http://www.w3.org/2000/svg">
<path d="M11.375 0C5.09336 0 0 5.09336 0 11.375C0 17.6566 5.09336 22.75 11.375 22.75C17.6566 22.75 22.75 17.6566 22.75 11.375C22.75 5.09336 17.6566 0 11.375 0ZM15.3029 11.54L9.05684 16.0596C8.92227 16.1561 8.73438 16.0596 8.73438 15.8945V14.7037C8.73438 14.4447 8.85879 14.1984 9.06953 14.0461L12.7613 11.375L9.06953 8.70391C8.85879 8.55156 8.73438 8.30781 8.73438 8.04629V6.85547C8.73438 6.69043 8.92227 6.59395 9.05684 6.69043L15.3029 11.21C15.4146 11.2912 15.4146 11.4588 15.3029 11.54Z" fill="white"/>
</svg>
