<svg width="12" height="18" viewBox="0 0 12 18" fill="none" xmlns="http://www.w3.org/2000/svg">
<path d="M11.1563 1.9996V0.187879C11.1563 0.0308479 10.9758 -0.0558709 10.8539 0.0402228L0.288315 8.29257C0.198545 8.36238 0.125907 8.45177 0.0759405 8.55393C0.0259741 8.65608 0 8.7683 0 8.88202C0 8.99574 0.0259741 9.10796 0.0759405 9.21011C0.125907 9.31227 0.198545 9.40166 0.288315 9.47147L10.8539 17.7238C10.9782 17.8199 11.1563 17.7332 11.1563 17.5762V15.7644C11.1563 15.6496 11.1024 15.5394 11.0133 15.4691L2.57582 8.88319L11.0133 2.29491C11.1024 2.2246 11.1563 2.11444 11.1563 1.9996Z" fill="black"/>
</svg>
