<svg width="25" height="25" viewBox="0 0 25 25" fill="none" xmlns="http://www.w3.org/2000/svg">
<g clip-path="url(#clip0_3092_112)">
<path d="M18.0416 0.505699L25.0416 0.530134C25.1742 0.530597 25.3012 0.583719 25.3946 0.677813C25.4881 0.771908 25.5403 0.899269 25.5398 1.03188L25.498 13.0318C25.4975 13.1644 25.4444 13.2914 25.3503 13.3848C25.2562 13.4783 25.1288 13.5305 24.9962 13.5301L17.9963 13.5056C17.8637 13.5052 17.7367 13.452 17.6432 13.3579C17.5498 13.2638 17.4975 13.1365 17.498 13.0039L17.5399 1.00395C17.5404 0.871343 17.5935 0.744351 17.6876 0.650911C17.7817 0.55747 17.909 0.505237 18.0416 0.505699ZM24.5381 1.52838L18.5381 1.50744L18.4997 12.5074L24.4997 12.5283L24.5381 1.52838Z" fill="#C8161D"/>
<path d="M4.32851 1.51392L13.5784 1.54621C14.5034 1.54943 16.182 1.9533 16.9284 2.70391C17.0192 2.79853 17.0691 2.925 17.0675 3.05609C17.0659 3.18719 17.0129 3.31241 16.9199 3.40479C16.8269 3.49717 16.7013 3.54932 16.5702 3.55C16.4391 3.55068 16.3129 3.49984 16.219 3.40843C15.7476 2.93379 14.388 2.54804 13.576 2.5452L4.32602 2.51291C3.63702 2.51051 3.07407 3.06955 3.07166 3.75854C3.07046 4.10254 3.20934 4.42503 3.4635 4.66692C3.53253 4.73242 3.58139 4.81629 3.60432 4.90865C3.62725 5.00101 3.62329 5.098 3.59292 5.18818C3.56254 5.27836 3.50701 5.35798 3.43288 5.41764C3.35874 5.47731 3.26909 5.51452 3.1745 5.52491C2.87017 5.55791 2.58855 5.70153 2.38313 5.92848C2.17771 6.15544 2.06279 6.44993 2.06019 6.75603C2.05899 7.10003 2.19787 7.42252 2.45203 7.66441C2.52106 7.72991 2.56992 7.81378 2.59285 7.90614C2.61578 7.9985 2.61183 8.09548 2.58145 8.18567C2.55107 8.27585 2.49554 8.35547 2.42141 8.41513C2.34727 8.47479 2.25762 8.51201 2.16303 8.5224C1.85888 8.55519 1.5774 8.69864 1.37212 8.92545C1.16685 9.15226 1.05211 9.44662 1.04973 9.75252C1.0481 10.2185 1.30862 10.6434 1.72986 10.8609C1.80924 10.901 1.87641 10.9617 1.92434 11.0366C1.97228 11.1115 1.99924 11.1979 2.0024 11.2868C2.00556 11.3757 1.98482 11.4638 1.94233 11.5419C1.89983 11.6201 1.83716 11.6854 1.76083 11.731C1.31086 12.0074 1.0402 12.4825 1.03838 13.0025C1.0355 13.8295 1.70614 14.5048 2.53314 14.5077L9.5331 14.5322C9.61388 14.5328 9.69331 14.553 9.76463 14.591C9.83595 14.6289 9.89706 14.6835 9.94277 14.7501C9.98848 14.8167 10.0174 14.8934 10.0272 14.9736C10.0369 15.0538 10.0272 15.1352 9.99873 15.2108C9.98864 15.2378 9.02179 17.7714 9.01565 19.5304C9.00993 21.1674 10.4572 22.5354 11.0052 22.5374C11.4362 22.5389 11.7977 22.3831 12.0061 22.2688L12.0174 19.0409C12.0177 18.9687 12.0337 18.8975 12.0641 18.832L15.0868 12.3425C15.135 12.2398 15.2162 12.1563 15.3176 12.1053L16.3193 11.6088C16.3782 11.5797 16.4422 11.5624 16.5078 11.558C16.5733 11.5536 16.6391 11.5622 16.7013 11.5832C16.7636 11.6042 16.821 11.6373 16.8705 11.6805C16.92 11.7238 16.9604 11.7763 16.9896 11.8352C17.0187 11.894 17.036 11.9581 17.0404 12.0236C17.0448 12.0892 17.0362 12.1549 17.0152 12.2172C16.9942 12.2794 16.9611 12.3369 16.9179 12.3863C16.8746 12.4358 16.8221 12.4762 16.7632 12.5054L15.9188 12.9234L13.017 19.1544L13.0051 22.5443C13.0046 22.6963 12.9351 22.8391 12.8158 22.9347C12.2887 23.3198 11.6544 23.5305 11.0017 23.5373C9.84468 23.5333 8.00808 21.6959 8.01565 19.5269C8.02043 18.1589 8.51637 16.4576 8.82461 15.5297L2.52965 15.5077C1.15166 15.5029 0.0335797 14.377 0.0383898 12.999C0.0405924 12.368 0.277656 11.7768 0.694232 11.3263C0.284677 10.9119 0.0476365 10.35 0.0497344 9.74903C0.0515342 9.33398 0.168615 8.92759 0.387919 8.5752C0.607224 8.22281 0.920124 7.93828 1.29171 7.75336C1.02942 7.22183 0.98849 6.608 1.17789 6.04635C1.36728 5.4847 1.77157 5.02102 2.30217 4.75686C2.13407 4.41319 2.05625 4.03237 2.07606 3.6503C2.09586 3.26823 2.21263 2.8975 2.41536 2.57304C2.61809 2.24859 2.90011 1.98111 3.23482 1.79581C3.56953 1.61051 3.94592 1.5135 4.32851 1.51392Z" fill="black"/>
</g>
<defs>
<clipPath id="clip0_3092_112">
<rect width="24" height="24" fill="white" transform="translate(23.9999 24.0837) rotate(-179.8)"/>
</clipPath>
</defs>
</svg>
