<svg width="15" height="15" viewBox="0 0 15 15" fill="none" xmlns="http://www.w3.org/2000/svg">
<path fill-rule="evenodd" clip-rule="evenodd" d="M10.2165 9.20751L14.06 13.051L13.051 14.06L9.20751 10.2165C8.24101 10.9678 7.02655 11.4152 5.70759 11.4152C2.55537 11.4152 0 8.8598 0 5.70759C0 2.55537 2.55537 0 5.70759 0C8.8598 0 11.4152 2.55537 11.4152 5.70759C11.4152 7.02655 10.9678 8.24101 10.2165 9.20751ZM5.70759 9.98828C8.07174 9.98828 9.98828 8.07174 9.98828 5.70759C9.98828 3.34343 8.07174 1.4269 5.70759 1.4269C3.34343 1.4269 1.4269 3.34343 1.4269 5.70759C1.4269 8.07174 3.34343 9.98828 5.70759 9.98828Z" fill="#708492"/>
</svg>
